<svg fill="none" height="1268" viewBox="0 0 1231 1268" width="1231" xmlns="http://www.w3.org/2000/svg"><path d="m14.4066 819.531c-24.7293-59.143-18.43458-116.534 25.1984-163.502 43.633-46.968 107.569-68.194 168.629-87.721 61.059-19.528 124.979-40.908 168.414-88.053 57.28-62.17 65.585-153.364 77.095-237.113 11.51-83.748 35.604-176.3236 108.215-219.6059 70.916-42.2664 162.497-21.29195 237.408 13.4041 198.508 91.9378 352.274 275.5358 407.934 487.1108 27.32 103.809 31.75 214.548 5.19 318.559-26.56 104.01-85.09 200.83-169.75 266.84-100.99 78.75-230.447 109.33-356.037 134.38-100.899 20.12-206.666 37.83-305.381 8.84-95.317-28-174.129-97.56-231.715-178.51-57.5866-80.955-96.8794-162.973-135.2004-254.629z" fill="#000"/></svg>