<?xml version="1.0" encoding="UTF-8" standalone="no"?>
<!-- Created with Inkscape (http://www.inkscape.org/) -->

<svg
   width="500mm"
   height="500mm"
   viewBox="0 0 500 500"
   version="1.1"
   id="svg5"
   inkscape:version="1.1.1 (3bf5ae0d25, 2021-09-20)"
   sodipodi:docname="orbit.svg"
   xmlns:inkscape="http://www.inkscape.org/namespaces/inkscape"
   xmlns:sodipodi="http://sodipodi.sourceforge.net/DTD/sodipodi-0.dtd"
   xmlns="http://www.w3.org/2000/svg"
   xmlns:svg="http://www.w3.org/2000/svg">
  <sodipodi:namedview
     id="namedview7"
     pagecolor="#ffffff"
     bordercolor="#666666"
     borderopacity="1.0"
     inkscape:pageshadow="2"
     inkscape:pageopacity="0.0"
     inkscape:pagecheckerboard="0"
     inkscape:document-units="mm"
     showgrid="true"
     inkscape:zoom="5.8203516"
     inkscape:cx="1562.7063"
     inkscape:cy="669.46127"
     inkscape:window-width="1920"
     inkscape:window-height="1129"
     inkscape:window-x="-8"
     inkscape:window-y="-8"
     inkscape:window-maximized="1"
     inkscape:current-layer="layer1">
    <inkscape:grid
       type="xygrid"
       id="grid824"
       units="mm"
       spacingx="0.99999999"
       spacingy="0.99999999" />
  </sodipodi:namedview>
  <defs
     id="defs2" />
  <g
     inkscape:label="Layer 1"
     inkscape:groupmode="layer"
     id="layer1">
    <path
       id="path848"
       style="fill:none;stroke:#00cca3"
       d="m 264.98237,30.502154 c 109.36904,7.355328 196.8351,94.639766 204.47535,203.930496 m 0.0504,30.39583 c -7.29715,109.642 -94.92003,197.30711 -204.54387,204.67058 m -29.87335,0.004 C 125.3885,462.1615 37.705838,374.40446 30.481374,264.67008 m 0.0187,-29.62153 C 37.85301,125.48648 125.41686,37.89764 234.96819,30.505484"
       sodipodi:nodetypes="cccccccc" />
    <path
       id="path848-8"
       style="fill:none;stroke:#00cca3;stroke-width:0.817096"
       d="m 112.93344,134.82387 c 32.97405,-38.931481 82.21679,-63.645434 137.23177,-63.645434 66.08467,0 123.84049,35.660024 155.07462,88.787244 m 14.2075,30.35037 c 6.78364,18.94014 10.47889,39.35022 10.47889,60.62337 0,99.27925 -80.48174,179.76099 -179.76101,179.76099 -29.25135,0 -56.87086,-6.9867 -81.28081,-19.38235 m -24.303,-14.8772 C 99.629149,363.76468 70.404188,310.76498 70.40419,250.93942 c 10e-7,-33.21438 9.008092,-64.32481 24.714456,-91.02147"
       sodipodi:nodetypes="csccssccsc" />
    <path
       id="path848-8-7"
       style="fill:none;stroke:#00cca3;stroke-width:0.639907"
       d="m 372.02486,321.47771 c -24.36251,41.99715 -69.81271,70.24118 -121.85965,70.24119 -59.14932,10e-6 -109.77865,-36.4784 -130.61836,-88.16558 m -6.571,-20.88483 c -2.34893,-10.19746 -3.59014,-20.81832 -3.59014,-31.72907 0,-51.59345 27.754,-96.7046 69.14656,-121.21802 m 21.00827,-10.18473 c 15.71002,-6.05646 32.7796,-9.37673 50.62467,-9.37673 17.27511,0 33.82348,3.11156 49.11523,8.8048 m 17.77426,8.07031 c 44.00184,23.80439 73.89,70.364 73.89,123.90437 0,16.20366 -2.73755,31.76793 -7.77539,46.25554"
       sodipodi:nodetypes="csccsccsccsc" />
    <ellipse
       style="fill:none;stroke:#00cca3;stroke-width:0.499871;stroke-miterlimit:4;stroke-dasharray:none;stroke-opacity:1"
       id="path848-8-9"
       cx="250.16521"
       cy="250.93942"
       rx="109.97153"
       ry="109.9715" />
    <ellipse
       style="fill:none;stroke:#00cca3;stroke-width:0.416992;stroke-miterlimit:4;stroke-dasharray:none;stroke-opacity:1"
       id="path848-8-1"
       cx="250.16521"
       cy="250.93942"
       rx="91.738235"
       ry="91.73822" />
    <ellipse
       style="fill:none;stroke:#00cca3;stroke-width:0.368408;stroke-miterlimit:4;stroke-dasharray:none;stroke-opacity:1"
       id="path848-8-1-5"
       cx="250.16521"
       cy="250.93942"
       rx="81.049751"
       ry="81.049744" />
    <path
       fill="#e44d26"
       d="m 236.68803,14.362261 2.43432,27.273547 10.92373,3.017311 L 261,41.639215 263.43676,14.362261 Z m 21.68541,6.457253 -0.15248,1.74503 -0.067,0.800253 h -12.81399 l 0.30583,3.406365 h 12.20354 l -0.0816,0.844535 -0.78662,8.78818 -0.0579,0.552316 -6.8604,1.885424 v 4.85e-4 l -0.008,0.0045 -6.8558,-1.806137 -0.46547,-5.15967 h 3.36138 l 0.23819,2.656723 3.71952,0.992953 h 0.0123 V 35.39763 l 3.73604,-0.942835 0.39027,-4.277178 h -11.60549 l -0.82313,-9.274315 -0.08,-0.94478 h 16.77365 z"
       id="path6216"
       style="fill:#00cca3;fill-opacity:1;stroke-width:0.243311" />
    <path
       fill="#1572b6"
       d="m 237.38023,484.695 2.29675,-25.78462 10.3058,-2.87351 10.33459,2.88402 2.29858,25.77411 z m 20.46428,-5.90738 -0.76452,-8.58969 0.003,-0.0464 -0.003,-0.10667 v 8.6e-4 l -0.54318,-6.00605 -0.0598,-0.53358 -6.47796,-1.79173 v -2.2e-4 l -0.005,-0.004 -6.46675,1.80171 -0.43789,4.9656 h 3.17114 l 0.225,-2.52494 L 250,465 l -8.6e-4,-0.002 v 4.6e-4 l 3.52747,0.96599 0.37278,4.11176 h -7.37401 l -0.0633,0.69507 -0.14414,1.6284 -0.0756,0.87438 h 7.93732 l 0.28873,3.19787 h -12.0893 l -0.0633,0.69463 -0.1439,1.62885 -0.0758,0.87438 h 15.82509 z"
       id="path8644"
       style="fill:#00cca3;fill-opacity:1;stroke-width:0.228419" />
    <path
       fill-rule="evenodd"
       clip-rule="evenodd"
       fill="#494949"
       d="m 457.03867,249.45747 c 0.0104,6.81944 5.55763,12.33986 12.40036,12.33986 6.7315,0 12.27539,-5.49495 12.39258,-12.05973 0.12297,-6.89445 -5.47147,-12.65562 -12.2555,-12.65741 -6.97941,-0.003 -12.54738,5.49376 -12.53744,12.37728 z m 24.19268,-0.02 c 0.003,6.54727 -5.31729,11.76387 -11.99348,11.76187 -6.30293,-0.003 -11.57565,-5.35706 -11.57704,-11.75709 -0.002,-6.52022 5.28505,-11.76367 11.85977,-11.76348 6.4052,4.1e-4 11.70856,5.32545 11.71075,11.7587 z m -6.22078,-4.94143 c -0.35673,0.10704 -0.48088,-0.1926 -0.50577,-0.51114 -0.0258,-0.33524 -0.0511,-0.6703 -0.0808,-1.05948 -3.82684,1.28451 -7.59699,2.54971 -11.45487,3.84497 0.15101,0.0923 0.19359,0.13031 0.24333,0.14702 2.12531,0.71109 4.24924,1.42617 6.38052,2.11915 0.1944,0.0633 0.45185,0.0319 0.65162,-0.0374 1.05847,-0.36669 2.09387,-0.80601 3.16509,-1.12752 0.73337,-0.21986 1.2079,-0.51154 1.12294,-1.37842 -0.0144,-0.14763 0.30322,-0.32789 0.46737,-0.49322 0.11937,0.19995 0.33902,0.39851 0.34202,0.60026 a 169.0373,169.0373 0 0 1 -0.002,5.296 c -0.004,0.20254 -0.2288,0.4011 -0.35116,0.60106 -0.15997,-0.17509 -0.39992,-0.3261 -0.4618,-0.53083 -0.0991,-0.32849 -0.0804,-0.69279 -0.1154,-1.08593 l -11.45229,3.84972 c 1.9371,0.58316 3.71583,1.12573 5.49913,1.65338 1.59191,0.47075 3.07855,0.1902 4.48063,-0.66095 0.42162,-0.25588 0.83068,-0.57023 1.29048,-0.71527 0.52307,-0.16475 1.11857,-0.30164 1.64323,-0.21429 0.88917,0.14823 1.33066,0.83047 1.41523,1.75366 4.68875,-5.05206 3.0103,-12.99107 -2.08413,-15.91642 0.052,1.12613 0.12017,2.20132 0.13489,3.27731 0.003,0.20333 -0.16931,0.54059 -0.32869,0.58833 z m -15.51331,2.0129 c -0.0687,-0.0235 -0.14505,-0.0248 -0.25905,-0.0434 -0.60365,2.17726 -0.56008,4.31253 0.17629,6.49794 l 9.14431,-3.33859 c -3.10601,-1.06844 -6.08328,-2.09309 -9.06155,-3.11597 z m 0.41344,-1.68243 13.79807,-5.02997 c -4.43249,-2.26917 -11.19524,-0.54297 -13.79807,5.02997 z m 8.86617,15.20632 c 2.09587,0.15957 4.99774,-0.56347 5.39687,-1.18781 -0.77098,-0.0696 -1.62871,-0.0211 -2.41024,-0.24233 -1.84138,-0.52069 -3.65076,-1.15736 -5.46509,-1.77057 -1.97213,-0.66652 -3.93529,-1.35931 -5.90244,-2.04076 1.89791,3.20171 4.6991,4.96113 8.3809,5.24147 z"
       id="path13109"
       style="fill:#00cca3;fill-opacity:1;stroke-width:0.198962" />
    <path
       fill="#f0db4f"
       d="M 19.289523,260.53665 H 40.745909 V 239.08027 H 19.289523 Z m 18.283074,-11.3494 c 0.643518,0.3167 1.066295,0.92125 1.270389,1.62177 0.247177,1.07642 0.106254,2.10598 -0.353432,2.87189 -0.31446,0.51255 -0.798519,0.91284 -1.356213,1.18456 l -1.000725,-1.63411 c 0.0058,-0.0143 0.08359,-0.0572 0.183839,-0.1145 0.349137,-0.20838 0.596314,-0.3881 0.769851,-0.74136 0.118444,-0.34707 0.194142,-1.10904 -0.416595,-1.40324 -0.310691,-0.17972 -1.309353,-0.12257 -2.414269,-0.12257 -1.73625,1.8e-4 -3.465293,-0.008 -5.181808,-0.008 v -2.00986 c 1.888164,0 3.676425,-0.0103 5.51893,0 1.129465,-0.005 2.136366,-0.1023 2.980033,0.35531 z m -0.567821,-8.33778 c 2.389727,0.69863 2.467312,4.59373 0.888464,6.15026 -0.371622,0.32889 -0.565764,0.53504 -0.994717,0.73124 -0.47582,-0.82719 -0.47582,-0.82719 -0.941507,-1.63206 0.672012,-0.43719 1.041578,-0.84144 1.192804,-1.56872 0.1205,-0.98665 -0.218509,-1.97931 -1.266445,-1.75668 -0.85585,0.22882 -1.064063,2.02033 -1.979308,3.23957 -0.831301,1.23778 -2.851293,1.52787 -4.005476,0.51066 C 29.471694,246.18473 29.153114,245.60662 29,245 l -0.08188,-0.63305 c -0.02452,-1.21546 0.296444,-1.97519 0.919195,-2.53289 0.157227,-0.15517 0.32682,-0.28184 0.694323,-0.51872 0.41265,0.64746 0.408705,0.6454 1.009139,1.57284 -0.426722,0.19808 -0.694497,0.5268 -0.810878,0.87421 -0.16341,0.53933 0.01427,1.21941 0.58413,1.36051 0.175594,0.0489 0.33901,0.0388 0.629096,-0.039 0.498306,-0.21851 0.714927,-0.9518 1.017204,-1.60957 0.76797,-1.89349 1.591382,-2.53288 2.571509,-2.69012 0.843836,-0.15139 1.391234,0.0366 1.472938,0.0652 z"
       id="path15409"
       style="fill:#00cca3;fill-opacity:1;stroke-width:0.171651" />
    <path
       fill="#6181b6"
       d="m 98.767174,143.45752 c -3.924967,5.77541 -4.734244,12.07028 -1.807334,14.05942 2.926919,1.98912 8.48181,-1.08062 12.40679,-6.85605 3.925,-5.77543 4.73428,-12.0703 1.80735,-14.05942 -2.92689,-1.98915 -8.48182,1.0806 -12.406806,6.85605 z m 4.482976,7.02453 c 0.0639,0.40824 -0.0281,0.75089 -0.13625,1.12355 -0.10797,0.3728 -0.39247,0.74724 -0.7134,1.2195 l -0.72741,1.07038 1.51013,1.45992 -0.84931,1.24976 -5.062066,-5.07043 1.633283,-2.40329 c 0.491382,-0.72305 1.057762,-1.10909 1.662573,-1.18279 0.60483,-0.0736 1.21122,0.1928 1.80148,0.78712 0.24311,0.24505 0.44116,0.51404 0.5852,0.80146 a 3.128856,3.128856 0 0 1 0.29592,0.9447 z m 2.98714,-3.30262 -2.13318,-2.17064 c -0.25076,-0.25253 -0.47941,-0.37782 -0.65052,-0.35177 -0.1714,0.026 -0.38273,0.18583 -0.59832,0.50297 l -0.67354,0.9911 L 105,149 l -0.84268,1.23999 -4.890891,-4.95407 0.842711,-1.24 1.33909,1.34345 0.75068,-1.10459 c 0.4724,-0.69514 0.93763,-1.0796 1.35927,-1.17867 0.42171,-0.0989 0.80749,0.0476 1.2788,0.52198 l 2.25627,2.29181 z m 2.76995,-8.19167 c 0.24325,0.24485 0.43672,0.511 0.58058,0.79821 0.14409,0.28762 0.2414,0.60143 0.29145,0.94155 0.064,0.40825 -0.0282,0.75106 -0.13623,1.12354 -0.10784,0.37265 -0.39257,0.74741 -0.71355,1.21967 l -0.72738,1.07036 1.51024,1.45978 -0.84931,1.24974 -5.06218,-5.07024 1.6334,-2.40347 c 0.49139,-0.72304 1.05777,-1.10908 1.66246,-1.18261 0.60459,-0.0733 1.22033,0.19926 1.81044,0.79347 z m -2.93893,1.4444 -0.58176,0.85605 2.0792,2.09543 0.51674,-0.76037 c 0.34224,-0.50358 0.54786,-0.91287 0.52534,-1.2885 -0.0219,-0.37572 -0.20313,-0.74211 -0.58847,-1.13011 -0.37011,-0.37263 -0.72827,-0.56104 -1.01108,-0.52196 -0.28288,0.0391 -0.61726,0.27466 -0.93998,0.74946 z m -6.629071,9.75439 -0.58189,0.85622 2.079211,2.09541 0.51662,-0.76019 c 0.34236,-0.50375 0.54786,-0.91285 0.52548,-1.28867 -0.0219,-0.37556 -0.20314,-0.7421 -0.58862,-1.12994 -0.37008,-0.37263 -0.72825,-0.56103 -1.01104,-0.52195 -0.28282,0.039 -0.617071,0.27428 -0.939771,0.74911 z"
       id="path18335"
       style="fill:#00cca3;fill-opacity:1;stroke-width:0.206962" />
    <path
       fill="#ffd845"
       d="m 410.92037,171.84608 2.77297,5.89288 c 0.77191,1.64039 2.76797,2.27945 4.41522,1.50432 l 5.61784,-2.64356 c 1.59897,-0.75242 2.16954,-2.65799 1.68283,-4.38471 -0.30807,-1.09271 -0.72398,-2.1759 -1.20356,-3.18246 -0.47913,-1.00631 -1.00464,-1.89994 -1.55354,-2.67667 -1.61571,-2.28946 -2.73881,-2.27885 -4.44144,-1.47766 l -2.18605,1.0287 2.75783,5.86072 -0.80836,0.38041 -3.82525,-8.12905 c -0.80681,-1.71457 -2.54569,-2.73038 -4.72752,-2.27711 -2.50226,0.51568 -3.8876,1.13821 -5.96787,2.80827 -1.54916,1.24119 -2.29395,2.81478 -1.48705,4.52955 l 0.94585,2.01003 2.63694,-1.24085 c 1.94757,-0.91646 4.42949,-0.004 5.37116,1.99719 z m 7.72912,-4.09075 c -0.28777,-0.61154 -0.0199,-1.34281 0.59967,-1.6344 0.62226,-0.2928 1.36098,-0.0354 1.64885,0.57632 0.28671,0.60933 0.0154,1.34523 -0.60686,1.63805 -0.61972,0.29135 -1.35502,0.0291 -1.64166,-0.57997 z m 1.87385,17.57951 c 1.50775,-1.22741 2.41281,-2.64191 1.60486,-4.35889 l -1.01584,-2.15878 -2.62339,1.23447 c -2.03105,0.95573 -4.47783,-0.0636 -5.40191,-2.02739 l -2.77297,-5.89288 c -0.75965,-1.61433 -2.84331,-2.19932 -4.46006,-1.43853 l -5.61825,2.64373 c -1.59858,0.75224 -1.89767,2.55795 -1.62255,4.33339 0.32977,2.12613 1.06289,3.94157 2.7627,5.87105 1.12915,1.28274 2.67333,2.31807 4.37558,1.51705 L 408,184 l -2.75786,-5.86075 0.80839,-0.38038 4.15409,8.82789 c 0.8068,1.71458 2.27492,1.80452 4.35106,1.55624 2.1379,-0.25391 3.87437,-1.10334 5.96766,-2.80816 z M 405.29579,182.144 c 0.28788,0.61174 0.02,1.34302 -0.59997,1.63478 -0.62165,0.29252 -1.36057,0.0352 -1.64854,-0.57672 -0.28672,-0.60931 -0.0154,-1.34502 0.60654,-1.63762 0.62003,-0.29176 1.35524,-0.0298 1.64197,0.57956 z"
       id="path21043"
       style="fill:#00cca3;fill-opacity:1;stroke-width:0.223351" />
    <path
       fill="#ea2d2e"
       d="m 161.0072,403.24327 c 4.00295,1.20781 -0.22046,-4.22523 -5.72713,-5.11791 0.53429,0.7257 0.84107,1.36652 0.84107,1.36652 2.16216,0.86021 3.07592,1.39984 4.70135,2.71219 1.34124,1.08354 0.18471,1.0392 0.18471,1.0392 z m -7.05585,-1.87836 c 2.87138,1.1316 4.33943,2.08538 6.08895,3.46654 C 161.39289,405.89982 160,406 160,406 c 4.53352,1.13346 -0.40079,-3.97634 -6.60603,-5.76691 0.43194,0.549 0.55736,1.13182 0.55736,1.13182 z m -8.81577,9.45899 c -1.8e-4,-1.1e-4 8.76982,2.91412 7.79844,-3.54685 -0.28751,-1.9059 1.76062,-2.1556 1.76062,-2.1556 0,0 -3.59581,-0.32096 -3.46362,2.21973 0.12598,2.36999 0.50202,3.74633 -6.09544,3.48272 z m 7.35179,-15.49972 c 0,0 -0.29802,-0.91233 1.26884,-0.47688 2.97864,0.82865 11.02558,5.61534 12.61455,7.96298 0.57047,0.84365 -1.21076,0.38102 -1.73989,0.18614 -0.55194,-0.20289 -0.81687,-0.39787 -0.81687,-0.39787 0.48524,1.17454 6.44164,2.38568 3.53806,-0.19383 -7.91842,-7.03216 -16.49824,-9.56627 -14.86472,-7.08052 z m -0.3768,7.299 c -0.60802,0.0202 -1.35362,-0.10031 -1.35362,-0.10031 0,0 1.85903,0.76102 3.61111,1.67685 2.14468,1.1215 4.35028,2.47399 5.35366,3.31648 2.37552,1.99439 -2.24928,0.39864 -2.24928,0.39864 0,0 1.49416,1.09632 4.0023,1.38583 2.96632,0.34295 -4.60044,-5.16086 -9.36416,-6.67753 z m 0.70905,-3.31375 c 0.0515,-0.0396 0.15204,-0.0568 0.15204,-0.0568 -6.46469,-2.05959 -6.76151,2.91067 -3.52171,3.66101 0.28452,0.0656 0.52782,-0.0485 0.52782,-0.0485 0,0 -0.18444,-0.034 -0.55539,-0.17355 -1.51623,-0.57082 -2.12014,-3.86018 3.39712,-3.38248 z m 2.09928,7.04109 c -0.35512,2.36637 1.39096,5.74189 -3.99925,6.29886 -6.71971,0.69263 -5.88135,4.44937 -5.88135,4.44937 1.3904,-4.23897 6.28567,-2.67935 9.24298,-3.99197 2.01447,-0.89486 1.53357,-3.53531 0.63752,-6.75633 z m 0.98613,-12.23423 c 3.80531,1.5173 7.95088,4.25278 10.17651,6.24101 0,0 -0.24158,-0.74478 -2.7517,-2.57409 -3.82035,-2.78156 -10.1882,-6.26681 -11.52857,-4.47426 -1.8e-4,-10e-5 0.73146,-0.5378 4.10376,0.80734 z"
       id="path24960"
       style="stroke-width:0.209827;fill:#00cca3;fill-opacity:1" />
    <path
       fill="#f34f29"
       d="m 381.40202,299.30407 -12.86006,4.6303 c -0.74046,0.26631 -1.12482,1.08315 -0.8584,1.82421 l 0.9617,2.67025 3.38753,-1.21957 c 0.0712,-0.62055 0.4813,-1.17721 1.1087,-1.40313 a 1.6939542,1.6939542 0 0 1 1.7568,0.3823 l 3.2651,-1.17526 c 0.0676,-0.62421 0.47893,-1.18783 1.11032,-1.41437 0.88153,-0.3177 1.85305,0.13947 2.17043,1.02134 a 1.6962338,1.6962338 0 0 1 -1.02161,2.17105 1.6969352,1.6969352 0 0 1 -1.82654,-0.45154 l -3.04466,1.09601 L 381,310 a 1.7023713,1.7023713 0 0 1 0.48102,-0.26971 c 0.88145,-0.31758 1.85262,0.13936 2.17105,1.02163 0.3171,0.88161 -0.14019,1.85343 -1.02131,2.17043 -0.88248,0.31692 -1.87684,-0.0909 -2.19429,-0.97229 -0.0786,-0.21772 -0.12139,-0.41659 -0.12188,-0.61047 l -5.4993,-2.58777 c -0.14952,0.12347 -0.32933,0.21707 -0.54824,0.29536 -0.66742,0.24044 -1.37378,0.0116 -1.82202,-0.48372 l -3.33372,1.18967 3.17721,8.81191 c 0.26705,0.74094 1.08534,1.12216 1.82609,0.85563 l 12.86074,-4.63173 c 0.74056,-0.26643 1.12519,-1.08394 0.85886,-1.82518 l -4.60818,-12.80043 c -0.26693,-0.74087 -1.08392,-1.12594 -1.82457,-0.85928 z"
       id="path28056"
       style="fill:#00cca3;fill-opacity:1;stroke-width:0.175357" />
    <path
       fill="#00618a"
       d="m 116.62693,281.88153 -0.0434,0.54902 c -0.14454,0.60573 -0.1741,1.25568 -0.13126,1.87667 0.0342,0.49532 0.30987,1.44237 0.0556,1.87121 l -0.002,0.0425 c -0.20724,-0.19984 -0.49982,-0.39127 -0.72272,-0.54949 -0.37416,-0.26593 -0.58379,-0.56753 -0.96676,-0.84498 -0.177,-0.12149 -0.37019,-0.26233 -0.51192,-0.34122 l -0.0905,0.0754 c -0.0866,0.26777 -0.19136,0.63429 -0.19607,0.96572 -0.0123,0.86708 0.005,1.76915 0.11697,2.6395 0.0619,0.48259 0.25174,0.97653 0.3601,1.45279 0.0367,0.16027 0.16833,0.38078 0.13491,0.53416 -0.0788,0.36276 -0.28601,0.6932 -0.43541,1.04626 -0.31333,0.73952 -0.68196,1.51517 -1.0508,2.24594 -0.25149,0.4983 -0.54717,0.93179 -0.72288,1.4392 -0.84271,2.43488 -0.94786,4.39201 -0.53119,6.94455 0.0889,0.54327 0.36893,1.05373 0.64372,1.611 0.19165,0.26199 0.383,0.52474 0.57463,0.78711 0.0619,0.20552 0.007,0.51838 0.0352,0.73629 0.11162,0.86792 0.53765,2.97746 1.91647,2.54782 0.87037,-0.27109 0.95432,-1.46026 1.08702,-1.97056 0.0926,-0.35801 0.1749,-0.78599 0.33614,-1.12002 0.10583,-0.21989 0.26603,-0.37504 0.39102,-0.59163 0.30845,-0.53328 0.67383,-1.07739 0.90813,-1.63129 0.11893,-0.28019 0.23958,-0.58046 0.31267,-0.87099 0.0451,-0.17817 -0.0234,-0.36317 0.13421,-0.53172 0.31224,-0.0226 0.62377,-0.26634 0.93768,-0.39335 1.41329,-0.57137 2.69415,-1.85654 3.09553,-3.0584 0.12353,-0.36893 0.36023,-1.19353 -0.27389,-1.53374 -0.55425,-0.29779 -1.06042,0.24442 -1.66663,0.52979 -0.13753,0.064 -0.17876,0.18408 -0.35104,0.13073 l 0.022,-0.0204 a 19.43428,19.43428 0 0 0 0.50173,-1.05878 c 0.23705,-0.70607 0.33334,-1.62693 0.30055,-2.36646 -0.0171,-0.38346 0.10875,-0.85879 0.0205,-1.178 l -0.0112,0.0115 -0.0218,-0.0254 c -0.0677,0.15541 -0.0105,0.26402 -0.0221,0.40081 -0.027,0.32189 -0.083,0.70142 -0.16126,1.01344 -0.21954,0.87905 -0.53342,1.75498 -0.89808,2.61814 -0.17398,0.41229 -0.39748,0.83036 -0.59765,1.22188 -0.0773,0.15076 -0.25967,0.30062 -0.23248,0.45987 0.34972,-0.0411 0.71294,0.0225 1.07639,-0.0866 0.58073,-0.1743 1.12502,-0.58508 1.72495,-0.9678 0.0473,0.0282 0.0226,0.0183 0.06,0.0268 0.18591,0.37947 -0.0483,0.76009 -0.23041,1.10912 -0.46069,0.88221 -1.55302,1.87885 -2.58303,2.29002 -0.26671,0.10646 -1.18272,0.34876 -1.27472,0.63362 -0.14491,0.2196 -0.0958,0.50761 -0.15384,0.73937 -0.0714,0.2868 -0.20117,0.62122 -0.33541,0.89 -0.34944,0.69919 -0.87418,1.32453 -1.21911,2.04175 -0.16489,0.34292 -0.26309,0.77307 -0.35897,1.13893 -0.10655,0.40531 -0.12518,0.77613 -0.32139,1.18453 -0.0698,0.14511 -0.19195,0.36498 -0.37151,0.38383 -0.0984,0.0401 -0.15957,0.0325 -0.24904,-0.0238 -0.2108,-0.0479 -0.37887,-0.52662 -0.43558,-0.71115 -0.14995,-0.48961 -0.26193,-0.90928 -0.31287,-1.38712 -0.0235,-0.22934 -0.0262,-0.48004 -0.0583,-0.75545 l -0.16905,-0.20453 c -0.26458,-0.31987 -0.53404,-0.70045 -0.69083,-1.07427 -0.27624,-0.66092 -0.41596,-1.34262 -0.50024,-1.99703 -0.25589,-1.9937 0.0361,-4.03897 0.83411,-5.93304 0.12864,-0.3049 0.30268,-0.53479 0.4566,-0.83688 0.3104,-0.60942 0.58993,-1.28507 0.89042,-1.88458 0.29992,-0.59839 0.60843,-1.19489 0.75794,-1.81358 0.0785,-0.32524 -0.30415,-1.01359 -0.41384,-1.37967 -0.0777,-0.25636 -0.25114,-0.63729 -0.29131,-0.90712 -0.0769,-0.51552 -0.10553,-1.05303 -0.14538,-1.56378 -0.02,-0.25495 -0.18043,-0.95672 0.004,-1.1514 0.63928,0.81723 1.21864,1.36583 1.87021,1.70567 0.18513,0.0965 0.38268,0.33167 0.58841,0.20225 0.0179,-0.15211 0.13504,-0.2704 0.18651,-0.42201 0.0985,-0.29114 0.19478,-0.72521 0.18107,-1.03006 -0.015,-0.33329 -0.0242,-0.68136 -0.0717,-1.01211 -0.0852,-0.58832 -0.31013,-1.13744 -0.38261,-1.71163 -0.0427,-0.33849 -0.0631,-0.72414 -0.0831,-1.07177 -0.0101,-0.17209 0.11492,-0.2698 -0.0282,-0.54346 l -0.0216,0.0203 c 0.003,0.19296 -0.1293,0.29251 -0.17104,0.44001 z m -2.32072,20.74123 c 0.13473,0.16937 0.26034,0.27765 0.3838,0.37172 l 0.0175,-0.0125 -0.0195,-0.0227 c 0.0507,-0.1758 0.0894,-0.44428 0.14892,-0.65881 l 0.29031,-0.62303 -0.0403,-0.005 c -0.21578,-0.0586 -0.42726,0.008 -0.66865,0.20941 -0.0129,0.10526 -0.0799,0.17508 -0.11041,0.28236 -0.0404,0.14286 0.0107,0.31295 -0.001,0.46044 z"
       id="path31168"
       style="fill:#00cca3;fill-opacity:1;stroke-width:0.151121" />
    <path
       fill="#83cd29"
       d="m 194.67042,116.64366 -8.61366,-0.74082 c -0.54057,-0.0423 -1.09894,0.22091 -1.41443,0.66555 l -4.97262,7.13405 c -0.32069,0.46003 -0.39593,1.07642 -0.15654,1.58518 l 3.68904,7.83959 c 0.23937,0.5088 0.76865,0.84091 1.32833,0.88835 l 2.28038,0.17917 c 1.06253,0.019 1.3015,-0.0935 1.69393,-0.27812 1.27753,-0.60112 1.57747,-1.68576 0.94351,-3.03304 l -3.642,-7.73963 c -0.0517,-0.10921 -0.0592,-0.3042 -0.16721,-0.25347 l -0.86178,0.40557 c -0.10909,0.0516 -0.24874,0.31571 -0.19742,0.42482 l 3.64202,7.73966 c 0.28107,0.59719 0.007,1.45233 -1.24071,1.42263 l -2.36405,-0.20061 c -0.0813,-0.004 -0.1536,-0.0574 -0.18882,-0.13231 l -3.68904,-7.83958 c -0.0354,-0.0735 0.001,-0.18145 0.049,-0.25017 l 4.95893,-7.11938 a 0.25547652,0.25547652 0 0 1 0.21695,-0.10202 l 8.58246,0.74616 c 0.0828,0.009 0.10621,0.0851 0.14217,0.16132 l 3.68906,7.83957 c 0.0358,0.0745 0.0835,0.14102 0.0373,0.2069 l -4.92026,7.10398 c -0.0417,0.0623 -0.11697,0.0975 -0.19696,0.0928 l -2.22162,-0.21824 c -0.0666,-0.006 -0.13474,0.0129 -0.172,0.0641 -0.35348,0.50018 -0.42591,0.57861 -0.80434,0.94823 -0.0932,0.0912 -0.22585,0.23585 0.2017,0.26628 l 2.89985,0.27448 a 1.5738573,1.5738573 0 0 0 0.80225,-0.14405 1.5760596,1.5760596 0 0 0 0.62537,-0.52755 l 4.8958,-7.0936 c 0.31948,-0.4634 0.31888,-1.04203 0.0794,-1.55081 l -3.68905,-7.8396 c -0.23956,-0.50867 -0.68521,-0.87845 -1.24497,-0.92568 z m -1.67085,10.35597 c -1.79766,0.8459 -2.42679,0.53625 -2.97938,-0.29548 -0.061,-0.089 -0.19669,-0.16564 -0.29476,-0.11948 l -0.87837,0.41331 c -0.10865,0.0513 -0.13419,0.22419 -0.0833,0.33241 0.53858,1.14444 1.81343,2.23827 4.78635,0.8393 2.1519,-1.01259 2.99239,-2.42946 2.29602,-3.90931 -0.69042,-1.46732 -1.86299,-1.3859 -4.08002,-0.68001 -2.2408,0.71387 -2.5214,0.67376 -2.75393,0.1799 -0.19177,-0.40744 -0.26593,-1.03627 1.2961,-1.77131 1.39556,-0.65665 2.05094,-0.59925 2.70534,0.2419 0.0597,0.0798 0.17047,0.10533 0.26169,0.0624 l 0.88205,-0.41502 c 0.0546,-0.0242 0.0955,-0.0718 0.11542,-0.12835 0.0172,-0.0592 0.0121,-0.12053 -0.0187,-0.17433 -0.89927,-1.55571 -2.33062,-1.80432 -4.50721,-0.78009 -1.93636,0.91118 -2.7065,2.27229 -2.06154,3.64287 0.6995,1.48662 2.04208,1.35665 3.98721,0.66582 2.32609,-0.82828 2.65188,-0.58472 2.85768,-0.14742 C 194.8878,125.71644 194.4302,126.327 193,127 Z"
       id="path32500"
       style="fill:#00cca3;fill-opacity:1;stroke-width:0.169414" />
    <g
       id="g35110"
       transform="matrix(0.15320941,0.07209489,-0.07209489,0.15320941,303.05413,108.23061)"
       style="fill:#00cca3;fill-opacity:1">
      <path
         d="m 52.203,9.61 c -5.3,1.18 -10.543,2.816 -15.457,5.292 0.113,4.34 0.395,8.496 0.961,12.72 -1.906,1.222 -3.914,2.273 -5.695,3.702 -1.813,1.395 -3.66,2.727 -5.301,4.36 A 101.543,101.543 0 0 0 16.395,29.68 C 12.543,33.824 8.94,38.297 6,43.305 c 2.313,3.629 4.793,7.273 7.086,10.117 v 30.723 c 0.059,0 0.113,0.003 0.168,0.007 L 32.09,85.97 a 2.027,2.027 0 0 1 1.828,1.875 l 0.582,8.316 16.426,1.172 1.133,-7.672 a 2.03,2.03 0 0 1 2.007,-1.734 h 19.868 a 2.03,2.03 0 0 1 2.007,1.734 l 1.133,7.672 16.43,-1.172 0.578,-8.316 A 2.027,2.027 0 0 1 95.91,85.97 l 18.828,-1.817 c 0.055,-0.004 0.11,-0.007 0.168,-0.007 V 81.69 h 0.008 V 53.42 c 2.652,-3.335 5.16,-7.019 7.086,-10.116 -2.941,-5.008 -6.543,-9.48 -10.395,-13.625 a 101.543,101.543 0 0 0 -10.316,6.004 c -1.64,-1.633 -3.488,-2.965 -5.3,-4.36 -1.782,-1.43 -3.79,-2.48 -5.696,-3.703 0.566,-4.223 0.848,-8.379 0.96,-12.719 -4.913,-2.476 -10.155,-4.113 -15.456,-5.293 -2.117,3.559 -4.055,7.41 -5.738,11.176 -2,-0.332 -4.008,-0.457 -6.02,-0.48 V 20.3 c -0.016,0 -0.027,0.004 -0.039,0.004 -0.012,0 -0.023,-0.004 -0.04,-0.004 v 0.004 c -2.01,0.023 -4.019,0.148 -6.019,0.48 -1.683,-3.765 -3.62,-7.617 -5.738,-11.176 z M 37.301,54.55 c 6.27,0 11.351,5.079 11.351,11.345 0,6.27 -5.082,11.351 -11.351,11.351 -6.266,0 -11.348,-5.082 -11.348,-11.351 0,-6.266 5.082,-11.344 11.348,-11.344 z m 53.398,0 c 6.266,0 11.348,5.079 11.348,11.345 0,6.27 -5.082,11.351 -11.348,11.351 -6.27,0 -11.351,-5.082 -11.351,-11.351 0,-6.266 5.082,-11.344 11.351,-11.344 z M 64,61.189 c 2.016,0 3.656,1.488 3.656,3.32 v 10.449 c 0,1.832 -1.64,3.32 -3.656,3.32 -2.02,0 -3.652,-1.488 -3.652,-3.32 v -10.45 c 0,-1.831 1.632,-3.32 3.652,-3.32 z m 0,0"
         id="path35095"
         style="fill:#00cca3;fill-opacity:1" />
      <path
         d="m 98.008,89.84 -0.582,8.36 a 2.024,2.024 0 0 1 -1.88,1.878 l -20.062,1.434 c -0.046,0.004 -0.097,0.004 -0.144,0.004 -0.996,0 -1.86,-0.73 -2.004,-1.73 L 72.184,91.98 H 55.816 l -1.152,7.805 a 2.026,2.026 0 0 1 -2.148,1.727 l -20.063,-1.434 a 2.024,2.024 0 0 1 -1.879,-1.879 l -0.582,-8.36 -16.937,-1.632 c 0.008,1.82 0.03,3.816 0.03,4.211 0,17.887 22.692,26.484 50.88,26.582 h 0.07 c 28.188,-0.098 50.871,-8.695 50.871,-26.582 0,-0.402 0.024,-2.39 0.031,-4.211 z m 0,0"
         fill="#010102"
         id="path35097"
         style="fill:#00cca3;fill-opacity:1" />
      <path
         d="m 45.922,66.566 a 7.531,7.531 0 0 1 -7.535,7.532 7.534,7.534 0 0 1 -7.535,-7.532 7.534,7.534 0 0 1 7.535,-7.53 7.531,7.531 0 0 1 7.535,7.53 m 36.156,0 a 7.53,7.53 0 0 0 7.531,7.532 7.5315,7.5315 0 1 0 0,-15.063 7.53,7.53 0 0 0 -7.53,7.531"
         id="path35099"
         style="fill:#00cca3;fill-opacity:1" />
    </g>
  </g>
</svg>
