<?xml version="1.0" encoding="UTF-8" standalone="no"?>
<!-- Created with Inkscape (http://www.inkscape.org/) -->

<svg
   width="500"
   height="30"
   viewBox="0 0 132.29167 7.9374995"
   version="1.1"
   id="svg5422"
   inkscape:version="1.1.1 (3bf5ae0d25, 2021-09-20)"
   sodipodi:docname="shape.svg"
   xmlns:inkscape="http://www.inkscape.org/namespaces/inkscape"
   xmlns:sodipodi="http://sodipodi.sourceforge.net/DTD/sodipodi-0.dtd"
   xmlns="http://www.w3.org/2000/svg"
   xmlns:svg="http://www.w3.org/2000/svg">
  <sodipodi:namedview
     id="namedview5424"
     pagecolor="#ffffff"
     bordercolor="#666666"
     borderopacity="1.0"
     inkscape:pageshadow="2"
     inkscape:pageopacity="0.0"
     inkscape:pagecheckerboard="0"
     inkscape:document-units="mm"
     showgrid="false"
     units="px"
     inkscape:zoom="1.5287037"
     inkscape:cx="295.34827"
     inkscape:cy="101.06602"
     inkscape:window-width="1920"
     inkscape:window-height="1017"
     inkscape:window-x="1912"
     inkscape:window-y="1072"
     inkscape:window-maximized="1"
     inkscape:current-layer="layer1" />
  <defs
     id="defs5419">
    <inkscape:path-effect
       effect="bspline"
       id="path-effect5461"
       is_visible="true"
       lpeversion="1"
       weight="33.333333"
       steps="2"
       helper_size="0"
       apply_no_weight="true"
       apply_with_weight="true"
       only_selected="false" />
  </defs>
  <g
     inkscape:label="Layer 1"
     inkscape:groupmode="layer"
     id="layer1">
    <path
       style="fill:#0d0d0d;fill-opacity:1;stroke:none;stroke-width:0.264583px;stroke-linecap:butt;stroke-linejoin:miter;stroke-opacity:1"
       d="m 135.56415,1.0492327 c -2.36545,1.5865782 -6.00006,3.4327309 -9.43289,3.4325966 -3.43283,-1.342e-4 -6.66353,-1.846249 -10.18271,-1.9903489 -3.51918,-0.1441 -7.3268,1.4135622 -10.73077,1.3845885 C 101.81382,3.8470952 98.813879,2.2317425 95.698565,2.2030228 92.58325,2.1743032 89.352545,3.731965 87.10247,3.7317783 84.852396,3.7315916 83.58319,2.1739303 81.679423,2.4625681 79.775657,2.7512059 77.237247,4.8857782 74.698623,5.0298714 72.16,5.1739647 69.621587,3.3278468 66.217794,3.4433882 62.814,3.5589296 58.544855,5.6358107 55.083202,5.5491029 51.62155,5.462395 48.967757,3.2124394 46.198577,2.7222153 43.429398,2.2319911 40.544839,3.5011968 37.313939,3.3280056 34.08304,3.1548144 30.506181,1.5394598 27.708253,1.9145431 24.910326,2.2896263 22.891136,4.6549635 20.467878,4.6836815 18.044621,4.7123995 15.217753,2.4047503 12.362089,2.4625966 9.5064254,2.5204429 6.6218654,4.9434719 3.7947811,5.058709 0.96769683,5.173946 -1.8014824,2.9816811 -2.1474511,0.44328009 -2.4934199,-2.0951209 -0.41653634,-4.9796764 23.699155,-5.6431024 c 24.11569,-0.663426 70.268611,0.8942352 92.797595,2.3365464 22.52899,1.4423112 21.43285,2.76921053 19.0674,4.3557887 z"
       id="path5459"
       inkscape:path-effect="#path-effect5461"
       inkscape:original-d="m 136.83342,0.78960351 c -3.63488,1.84588909 -7.26949,3.69204309 -10.90384,5.53846209 -3.2311,-1.846456 -6.4618,-3.692573 -9.69231,-5.53846209 C 112.42924,2.3470626 108.62162,3.9047236 104.81419,5.4626806 101.81387,3.8469996 98.813931,2.2316466 95.814194,0.61652651 92.583097,2.1739856 89.352391,3.7316466 86.121887,5.2896036 84.852366,3.7316156 83.58316,2.1739546 82.314194,0.61652651 79.775417,2.7509206 77.237007,4.8854926 74.698811,7.0203726 72.160034,5.1739176 69.621621,3.3278006 67.083426,1.4819115 62.813845,3.5586116 58.5447,5.6354926 54.275733,7.7126806 51.62157,5.4623716 48.967776,3.2124166 46.314195,0.96268051 43.429258,2.2316726 40.544699,3.5008776 37.660349,4.7703726 34.083095,3.1546916 30.506235,1.5393395 26.929575,-0.07578049 24.910045,2.2893866 22.890855,4.6547236 20.871885,7.0203726 18.044645,4.7123696 15.217775,2.4047236 12.391125,0.09729651 9.5061849,2.5201566 6.6216249,4.9431856 3.7372749,7.3665266 c -2.76955005,-2.192616 -5.53873,-4.38488 -8.3077,-6.57692309 2.07671,-2.88493701 4.15358995,-5.76949501 6.23078,-8.65384601 46.1544991,1.557459 92.3074201,3.11512 138.4615351,4.673077 -1.09644,1.326685 -2.19258,2.65358201 -3.28847,3.98076901 z" />
  </g>
</svg>
