<?xml version="1.0" encoding="UTF-8" standalone="no"?>
<!-- Created with Inkscape (http://www.inkscape.org/) -->

<svg
   width="200mm"
   height="100mm"
   viewBox="0 0 200 100"
   version="1.1"
   id="svg4320"
   inkscape:version="1.1.1 (3bf5ae0d25, 2021-09-20)"
   sodipodi:docname="squigly.svg"
   xmlns:inkscape="http://www.inkscape.org/namespaces/inkscape"
   xmlns:sodipodi="http://sodipodi.sourceforge.net/DTD/sodipodi-0.dtd"
   xmlns="http://www.w3.org/2000/svg"
   xmlns:svg="http://www.w3.org/2000/svg">
  <sodipodi:namedview
     id="namedview4322"
     pagecolor="#ffffff"
     bordercolor="#666666"
     borderopacity="1.0"
     inkscape:pageshadow="2"
     inkscape:pageopacity="0.0"
     inkscape:pagecheckerboard="0"
     inkscape:document-units="mm"
     showgrid="true"
     width="200mm"
     inkscape:snap-grids="true"
     inkscape:zoom="0.76435185"
     inkscape:cx="437.62568"
     inkscape:cy="232.2229"
     inkscape:window-width="1920"
     inkscape:window-height="1017"
     inkscape:window-x="1912"
     inkscape:window-y="1072"
     inkscape:window-maximized="1"
     inkscape:current-layer="layer1">
    <inkscape:grid
       type="xygrid"
       id="grid4324" />
  </sodipodi:namedview>
  <defs
     id="defs4317">
    <inkscape:path-effect
       effect="bspline"
       id="path-effect4460"
       is_visible="true"
       lpeversion="1"
       weight="33.333333"
       steps="2"
       helper_size="0"
       apply_no_weight="true"
       apply_with_weight="true"
       only_selected="false" />
  </defs>
  <g
     inkscape:label="Layer 1"
     inkscape:groupmode="layer"
     id="layer1">
    <path
       style="fill:none;stroke:#00cca3;stroke-width:0.865;stroke-linecap:butt;stroke-linejoin:miter;stroke-opacity:0.17016317;stroke-miterlimit:4;stroke-dasharray:none"
       d="M 10.583333,0 C 7.0555554,3.5277775 3.5277775,7.0555554 1.7638888,10.583501 0,14.111446 0,17.639153 3.5278483,15.875061 7.0556966,14.110969 14.11111,7.0555555 19.402945,3.5277778 24.694779,0 28.222487,0 24.694471,5.2917725 21.166455,10.583545 10.583334,21.166666 5.2916668,28.222389 0,35.278112 0,38.805821 7.0556968,33.51388 14.111394,28.22194 28.222223,14.11111 37.041834,7.0555552 45.861446,0 49.389154,0 42.333296,7.9376521 35.277439,15.875304 17.638903,31.749986 8.8194516,41.451549 0,51.153112 0,54.68082 10.583551,46.742988 21.167101,38.805156 42.333345,19.402767 54.680728,9.7013833 67.028112,0 70.55582,0 59.972112,11.465502 49.388405,22.931004 24.694455,45.8611 12.347227,59.09044 0,72.319779 0,75.847487 14.111398,64.381808 28.222795,52.916128 56.444452,26.458326 72.319615,13.229163 88.194778,0 91.722487,0 77.61093,14.993352 63.499372,29.986703 31.750007,59.972215 15.875003,76.72933 0,93.486445 0,97.014153 17.639245,82.020627 35.278491,67.027101 70.555562,33.513882 89.958501,16.756941 109.36144,0 112.88915,0 97.013671,16.757277 81.138192,33.514554 45.861119,67.027773 29.986283,83.784721 14.111446,100.54167 17.639153,100.54167 37.042156,83.784386 56.445158,67.027102 91.722229,33.513883 111.12517,16.756941 130.52811,0 134.05582,0 118.18034,16.757277 102.30485,33.514554 67.027785,67.027772 51.152949,83.784721 35.278112,100.54167 38.805821,100.54167 58.208822,83.784385 77.611823,67.027101 112.88889,33.513883 132.29184,16.756941 151.69478,0 155.22249,0 139.34701,16.757277 123.47152,33.514553 88.194452,67.027772 72.319615,83.784721 56.444779,100.54167 59.972487,100.54167 79.375489,83.784386 98.778491,67.027101 134.05556,33.513882 153.4585,16.756941 172.86144,0 176.38915,0 160.51367,16.757275 144.63819,33.514549 109.36112,67.027773 93.48628,83.784721 77.611445,100.54167 81.139153,100.54167 100.54215,83.784387 119.94516,67.027104 155.22223,33.513881 174.62517,16.756941 194.02811,0 197.55582,0 181.68034,16.757277 c -15.87549,16.757277 -51.15256,50.270495 -67.02739,67.027444 -15.874838,16.756949 -12.34713,16.756949 5.29195,1.763589 17.63907,-14.993361 49.38844,-44.978876 65.26344,-58.20787 15.87499,-13.228994 15.87499,-9.701287 1.7636,5.291897 -14.11139,14.993184 -42.33304,41.450991 -54.6801,54.680162 -12.34706,13.229171 -8.81935,13.229171 5.29188,1.763658 14.11123,-11.465512 38.80518,-34.39561 51.15239,-44.096827 12.34722,-9.701218 12.34722,-6.173509 1.76368,5.291823 -10.58353,11.465333 -31.74978,30.867726 -40.56907,40.569122 -8.81928,9.701395 -5.29157,9.701395 5.29182,1.763728 10.58338,-7.937668 28.22192,-23.812352 37.04135,-29.985788 8.81944,-6.173436 8.81944,-2.645728 1.76375,5.291755 -7.05568,7.937484 -21.16651,20.284461 -26.45802,26.45808 -5.29151,6.17362 -1.7638,6.17362 5.29174,1.763797 7.05554,-4.409823 17.63866,-13.229091 22.93032,-15.874747 5.29165,-2.645655 5.29165,0.882053 1.76382,5.29168 -3.52782,4.409626 -10.58323,9.701185 -11.46502,12.347037 -0.88178,2.645853 4.40978,2.645853 7.93744,1.763889 3.52767,-0.881963 5.29152,-2.64582 7.05541,-4.409707"
       id="path4458"
       inkscape:path-effect="#path-effect4460"
       inkscape:original-d="M 10.583333,0 C 7.0558201,3.5280422 3.5280422,7.0558201 0,10.583333 2.6458333e-4,14.111446 2.6458333e-4,17.639153 0,21.166666 7.0559612,14.111234 14.111375,7.0558201 21.166666,0 24.694779,2.6458333e-4 28.222487,2.6458333e-4 31.75,0 21.166719,10.583809 10.583598,21.166931 0,31.75 2.6458333e-4,35.278112 2.6458333e-4,38.805821 0,42.333333 14.111658,28.222204 28.222487,14.111375 42.333333,0 45.861446,2.6458333e-4 49.389154,2.6458333e-4 52.916666,0 35.277689,15.875582 17.639153,31.750264 0,47.624999 2.6458333e-4,51.153112 2.6458333e-4,54.68082 0,58.208333 21.167354,38.805432 42.333597,19.403042 63.499999,0 67.028112,2.6458333e-4 70.55582,2.6458333e-4 74.083332,0 49.388659,22.931278 24.694709,45.861374 0,68.791666 2.6458333e-4,72.319779 2.6458333e-4,75.847487 0,79.374999 28.223051,52.916401 56.444707,26.458598 84.666666,0 88.194778,2.6458333e-4 91.722487,2.6458333e-4 95.249999,0 63.499629,29.986975 31.750264,59.972487 0,89.958332 2.6458333e-4,93.486445 2.6458333e-4,97.014153 0,100.54167 35.278747,67.027371 70.55582,33.514154 105.83333,0 c 3.52811,2.6458333e-4 7.05582,2.6458333e-4 10.58334,0 -35.278223,33.514823 -70.555296,67.028041 -105.833337,100.54167 3.528113,2.6e-4 7.05582,2.6e-4 10.583333,0 C 56.445414,67.027371 91.722487,33.514154 127,0 c 3.52811,2.6458333e-4 7.05582,2.6458333e-4 10.58333,0 C 102.30511,33.514823 67.028041,67.028041 31.75,100.54167 c 3.528112,2.6e-4 7.055821,2.6e-4 10.583333,0 C 77.61208,67.027371 112.88915,33.514154 148.16666,0 151.69478,2.6458333e-4 155.22249,2.6458333e-4 158.75,0 123.47178,33.514823 88.194707,67.028041 52.916666,100.54167 c 3.528113,2.6e-4 7.055821,2.6e-4 10.583333,0 C 98.778747,67.027371 134.05582,33.514154 169.33333,0 c 3.52811,2.6458333e-4 7.05582,2.6458333e-4 10.58333,0 -35.27821,33.514823 -70.55529,67.028041 -105.833328,100.54167 3.528113,2.6e-4 7.055821,2.6e-4 10.583334,0 C 119.94541,67.027371 155.22249,33.514154 190.5,0 c 3.52811,2.6458333e-4 7.05582,2.6458333e-4 10.58333,0 -35.27822,33.514823 -70.55529,67.028041 -105.833331,100.54167 3.528113,2.6e-4 7.055821,2.6e-4 10.583331,0 31.7509,-29.98645 63.50027,-59.971962 95.25,-89.958337 2.7e-4,3.528113 2.7e-4,7.05582 0,10.583333 -28.22252,26.459127 -56.44418,52.916931 -84.66666,79.375004 3.52811,2.6e-4 7.05582,2.6e-4 10.58333,0 24.6952,-22.930754 49.38915,-45.86085 74.08333,-68.79167 2.7e-4,3.528112 2.7e-4,7.055821 0,10.583333 -21.16682,19.40343 -42.33307,38.80582 -63.5,58.208337 3.52811,2.6e-4 7.05582,2.6e-4 10.58333,0 17.63951,-15.875057 35.27805,-31.74974 52.91667,-47.625004 2.7e-4,3.528113 2.7e-4,7.055821 0,10.583333 -14.11113,12.347734 -28.22196,24.694708 -42.33333,37.041671 3.52811,2.6e-4 7.05582,2.6e-4 10.58333,0 10.58381,-8.819361 21.16693,-17.63863 31.75,-26.458338 2.7e-4,3.528113 2.7e-4,7.055821 0,10.583334 -7.05543,5.292037 -14.11084,10.583597 -21.16667,15.875004 5.29204,2.6e-4 10.5836,2.6e-4 15.875,0 1.76419,-1.763664 3.52805,-3.527517 5.29167,-5.291671" />
  </g>
</svg>
